<?xml version="1.0"?>
<svg version="1.1" id="圖層_1" xmlns="http://www.w3.org/2000/svg" x="0" y="0" viewBox="0 0 100 100" xml:space="preserve"><circle cx="50" cy="50" r="41.122" fill="#333"/><path d="M74.516 54.906a25.162 25.162 0 0 0 0-9.812l-6.474-.195a18.629 18.629 0 0 0-1.677-4.049l4.439-4.714a25.13 25.13 0 0 0-6.939-6.939l-4.714 4.439a18.58 18.58 0 0 0-4.049-1.677l-.195-6.474a25.103 25.103 0 0 0-9.813-.001l-.195 6.474a18.629 18.629 0 0 0-4.049 1.677l-4.714-4.439a25.13 25.13 0 0 0-6.939 6.939l4.439 4.714a18.58 18.58 0 0 0-1.677 4.049l-6.474.195a25.103 25.103 0 0 0-.001 9.813l6.474.195a18.629 18.629 0 0 0 1.677 4.049l-4.439 4.714a25.13 25.13 0 0 0 6.939 6.939l4.714-4.439a18.58 18.58 0 0 0 4.049 1.677l.195 6.474a25.103 25.103 0 0 0 9.813.001l.195-6.474a18.629 18.629 0 0 0 4.049-1.677l4.714 4.439a25.13 25.13 0 0 0 6.939-6.939l-4.439-4.714a18.58 18.58 0 0 0 1.677-4.049l6.475-.196zM50 59.375A9.375 9.375 0 0 1 40.625 50c0-5.178 4.197-9.375 9.375-9.375s9.375 4.197 9.375 9.375A9.375 9.375 0 0 1 50 59.375z" fill="#e0e0e0"/><metadata xmlns:d="https://loading.io/stock/"><d:name>gear</d:name><d:tags>setup,component,part,assembly,gear,edit,gear,gear</d:tags><d:license>by</d:license><d:slug>r9txgd</d:slug></metadata></svg>